<?xml version="1.0" encoding="UTF-8"?>
<svg width="1000px" height="1000px" viewBox="0 0 1000 1000" version="1.1" xmlns="http://www.w3.org/2000/svg" xmlns:xlink="http://www.w3.org/1999/xlink" style="background: #293032;">
    <!-- Generator: Sketch 49.3 (51167) - http://www.bohemiancoding.com/sketch -->
    <title>Artboard 3</title>
    <desc>Created with Sketch.</desc>
    <defs></defs>
    <g id="Artboard-3" stroke="none" stroke-width="1" fill="none" fill-rule="evenodd">
        <text id="🚀" font-family="AppleColorEmoji, Apple Color Emoji" font-size="275" font-weight="normal" line-spacing="541" fill="#1A1A1A">
            <tspan x="620" y="540">🚀</tspan>
        </text>
        <text id="+" font-family="IBMPlexSans, IBM Plex Sans" font-size="200" font-weight="normal" line-spacing="541" fill="#61DAFB">
            <tspan x="476" y="420">+</tspan>
        </text>
        <g id="react" transform="translate(110.000000, 348.000000)" fill="#61DAFB" fill-rule="nonzero">
            <path d="M342,152.534905 C342,129.846647 313.627803,108.345159 270.128414,95.0114443 C280.166735,50.6122683 275.705259,15.2883955 256.046881,3.97917144 C251.515695,1.32639048 246.217693,0.0698100252 240.431716,0.0698100252 L240.431716,15.6374456 C243.638402,15.6374456 246.217693,16.2657359 248.37872,17.4525063 C257.859356,22.8976883 261.972279,43.6312657 258.765593,70.2986954 C257.998777,76.8608377 256.743987,83.7720302 255.210355,90.8228428 C241.547085,87.4719615 226.629026,84.8889906 210.94415,83.21355 C201.533225,70.2986954 191.773746,58.5706111 181.944558,48.3085374 C204.6702,27.1560998 226.001631,15.5676356 240.501427,15.5676356 L240.501427,0 C240.501427,0 240.501427,0 240.501427,0 C221.331023,0 196.235222,13.6827649 170.860579,37.4181735 C145.485936,13.822385 120.390135,0.279240101 101.219731,0.279240101 L101.219731,15.8468757 C115.649817,15.8468757 137.050958,27.3655299 159.7766,48.3783474 C150.017122,58.6404211 140.257644,70.2986954 130.986139,83.21355 C115.231553,84.8889906 100.313494,87.4719615 86.6502242,90.8926528 C85.0468814,83.9116503 83.8618019,77.1400778 83.0252752,70.6477455 C79.7488789,43.9803159 83.7920913,23.2467384 93.2030167,17.7317464 C95.2943335,16.4751659 98.0130453,15.9166857 101.219731,15.9166857 L101.219731,0.349050126 C101.219731,0.349050126 101.219731,0.349050126 101.219731,0.349050126 C95.364044,0.349050126 90.0660416,1.60563058 85.4651447,4.25841154 C65.8764778,15.5676356 61.4847126,50.8216983 71.5927436,95.0812543 C28.2327762,108.484779 0,129.916457 0,152.534905 C0,175.223163 28.3721973,196.724651 71.8715858,210.058366 C61.8332654,254.457542 66.2947411,289.781415 85.9531186,301.090639 C90.4843049,303.74342 95.7823074,305 101.637994,305 C120.808398,305 145.904199,291.317235 171.278842,267.581827 C196.653486,291.177615 221.749287,304.72076 240.91969,304.72076 C246.775377,304.72076 252.07338,303.464179 256.674276,300.811398 C276.262943,289.502174 280.654709,254.248112 270.546678,209.988556 C313.767224,196.654841 342,175.153353 342,152.534905 Z M251.236853,105.971618 C248.657562,114.977111 245.450876,124.261845 241.825927,133.546578 C238.967795,127.961776 235.970241,122.376974 232.693844,116.792172 C229.487159,111.20737 226.071341,105.762188 222.655524,100.456626 C232.554423,101.922637 242.10477,103.737697 251.236853,105.971618 Z M219.309417,180.319295 C213.871993,189.743648 208.295149,198.679332 202.509172,206.986725 C192.122299,207.894255 181.596005,208.382925 171,208.382925 C160.473706,208.382925 149.947411,207.894255 139.630249,207.056535 C133.844272,198.749142 128.197717,189.883268 122.760294,180.528725 C117.462291,171.383612 112.652263,162.098878 108.260497,152.744335 C112.582552,143.389792 117.462291,134.035248 122.690583,124.890135 C128.128007,115.465782 133.704851,106.530098 139.490828,98.2227054 C149.877701,97.3151751 160.403995,96.8265049 171,96.8265049 C181.526294,96.8265049 192.052589,97.3151751 202.369751,98.1528954 C208.155728,106.460288 213.802283,115.326162 219.239706,124.680705 C224.537709,133.825818 229.347737,143.110552 233.739503,152.465095 C229.347737,161.819638 224.537709,171.174182 219.309417,180.319295 Z M241.825927,171.243992 C245.590298,180.598535 248.796983,189.953079 251.445985,199.028382 C242.313901,201.262303 232.693844,203.147173 222.725234,204.613184 C226.141052,199.237812 229.556869,193.72282 232.763555,188.068208 C235.970241,182.483406 238.967795,176.828794 241.825927,171.243992 Z M171.139421,245.731289 C164.656339,239.029526 158.173257,231.559854 151.759886,223.392081 C158.033836,223.671321 164.447208,223.880751 170.930289,223.880751 C177.483082,223.880751 183.966164,223.741131 190.309825,223.392081 C184.035874,231.559854 177.552792,239.029526 171.139421,245.731289 Z M119.274766,204.613184 C109.375866,203.147173 99.8255198,201.332113 90.6934366,199.098192 C93.2727273,190.092699 96.479413,180.807965 100.104362,171.523232 C102.962495,177.108034 105.960049,182.692836 109.236445,188.277638 C112.512841,193.86244 115.858948,199.307622 119.274766,204.613184 Z M170.790868,59.3385214 C177.27395,66.0402838 183.757032,73.5099565 190.170404,81.6777295 C183.896453,81.3984894 177.483082,81.1890593 171,81.1890593 C164.447208,81.1890593 157.964126,81.3286793 151.620465,81.6777295 C157.894415,73.5099565 164.377497,66.0402838 170.790868,59.3385214 Z M119.205055,100.456626 C115.789238,105.831998 112.37342,111.34699 109.166735,117.001602 C105.960049,122.586404 102.962495,128.171206 100.104362,133.756008 C96.3399918,124.401465 93.1333062,115.046921 90.4843049,105.971618 C99.6163881,103.807507 109.236445,101.922637 119.205055,100.456626 Z M56.1169996,187.858778 C31.4394619,177.317464 15.475744,163.495079 15.475744,152.534905 C15.475744,141.574731 31.4394619,127.682536 56.1169996,117.211032 C62.1121076,114.628061 68.6649001,112.324331 75.4268243,110.16022 C79.4003261,123.842985 84.628618,138.08423 91.1117,152.674525 C84.6983286,167.19501 79.5397472,181.366445 75.635956,194.9794 C68.7346107,192.81529 62.1818182,190.441749 56.1169996,187.858778 Z M93.6212801,287.617304 C84.1406441,282.172122 80.0277212,261.438544 83.2344068,234.771115 C84.001223,228.208972 85.256013,221.29778 86.7896453,214.246967 C100.452915,217.597848 115.370974,220.180819 131.05585,221.85626 C140.466775,234.771115 150.226254,246.499199 160.055442,256.761273 C137.3298,277.91371 115.998369,289.502174 101.498573,289.502174 C98.361598,289.432364 95.7125968,288.804074 93.6212801,287.617304 Z M258.974725,234.422065 C262.251121,261.089494 258.207909,281.823072 248.796983,287.338064 C246.705667,288.594644 243.986955,289.153124 240.780269,289.153124 C226.350183,289.153124 204.949042,277.63447 182.2234,256.621653 C191.982878,246.359579 201.742356,234.701305 211.013861,221.78645 C226.768447,220.111009 241.686506,217.528038 255.349776,214.107347 C256.953119,221.15816 258.207909,227.929732 258.974725,234.422065 Z M285.81329,187.858778 C279.818182,190.441749 273.265389,192.74548 266.503465,194.90959 C262.529963,181.226825 257.301671,166.98558 250.818589,152.395285 C257.231961,137.8748 262.390542,123.703365 266.294333,110.09041 C273.195679,112.25452 279.748471,114.628061 285.883,117.211032 C310.560538,127.752346 326.524256,141.574731 326.524256,152.534905 C326.454545,163.495079 310.490828,177.387274 285.81329,187.858778 Z" id="Shape"></path>
            <circle id="Oval" cx="172" cy="153" r="32"></circle>
        </g>
    </g>
</svg>