<?xml version="1.0" encoding="UTF-8"?>
<svg width="800px" height="800px" viewBox="0 0 800 800" version="1.1" xmlns="http://www.w3.org/2000/svg" xmlns:xlink="http://www.w3.org/1999/xlink" style="background: #FFFFFF;">
    <!-- Generator: Sketch 49.3 (51167) - http://www.bohemiancoding.com/sketch -->
    <title>Artboard</title>
    <desc>Created with Sketch.</desc>
    <defs></defs>
    <g id="Artboard" stroke="none" stroke-width="1" fill="none" fill-rule="evenodd">
        <rect id="Rectangle-Copy-9" fill="#000000" x="172" y="330" width="22" height="132"></rect>
        <rect id="Rectangle-Copy-26" fill="#000000" x="301" y="352" width="22" height="110"></rect>
        <rect id="Rectangle-Copy-34" fill="#000000" x="453" y="352" width="22" height="110"></rect>
        <rect id="Rectangle-Copy-37" fill="#000000" transform="translate(577.000000, 429.000000) rotate(-180.000000) translate(-577.000000, -429.000000) " x="566" y="396" width="22" height="66"></rect>
        <rect id="Rectangle-Copy-40" fill="#000000" transform="translate(508.000000, 385.000000) rotate(-180.000000) translate(-508.000000, -385.000000) " x="497" y="352" width="22" height="66"></rect>
        <rect id="Rectangle-Copy-32" fill="#000000" transform="translate(422.000000, 428.500000) rotate(-360.000000) translate(-422.000000, -428.500000) " x="411" y="395" width="22" height="67"></rect>
        <rect id="Rectangle-Copy-22" fill="#000000" x="236" y="353" width="22" height="22"></rect>
        <rect id="Rectangle-Copy-24" fill="#D92A63" x="259" y="353" width="22" height="22"></rect>
        <rect id="Rectangle-Copy-25" fill="#000000" x="259" y="376" width="22" height="22"></rect>
        <rect id="Rectangle-Copy-33" fill="#000000" x="411" y="308" width="22" height="89"></rect>
        <rect id="Rectangle-Copy-41" fill="#000000" x="607" y="308" width="22" height="154"></rect>
        <rect id="Rectangle-Copy-27" fill="#0064FF" x="301" y="308" width="22" height="22"></rect>
        <rect id="Rectangle-Copy-35" fill="#000000" x="453" y="308" width="22" height="22"></rect>
        <rect id="Rectangle-Copy-11" fill="#000000" x="149" y="330" width="22" height="22"></rect>
        <rect id="Rectangle-Copy-23" fill="#000000" x="388" y="394" width="22" height="22"></rect>
        <rect id="Rectangle-Copy-31" fill="#000000" x="543" y="396" width="22" height="22"></rect>
        <rect id="Rectangle-Copy-36" fill="#000000" x="543" y="440" width="22" height="22"></rect>
        <rect id="Rectangle-Copy-38" fill="#000000" x="543" y="352" width="22" height="22"></rect>
        <rect id="Rectangle-Copy-30" fill="#000000" x="676" y="394" width="22" height="22"></rect>
        <rect id="Rectangle-Copy-29" fill="#000000" x="388" y="440" width="22" height="22"></rect>
        <rect id="Rectangle-Copy-12" fill="#000000" x="103" y="376" width="22" height="22"></rect>
        <rect id="Rectangle-Copy-16" fill="#000000" x="126" y="376" width="22" height="22"></rect>
        <rect id="Rectangle-Copy-19" fill="#000000" x="126" y="440" width="22" height="22"></rect>
        <rect id="Rectangle-Copy-20" fill="#0064FF" x="103" y="440" width="22" height="22"></rect>
        <rect id="Rectangle-Copy-17" fill="#000000" x="149" y="376" width="22" height="22"></rect>
        <rect id="Rectangle-Copy-18" fill="#000000" x="149" y="440" width="22" height="22"></rect>
        <rect id="Rectangle-Copy-13" fill="#D92A63" x="126" y="330" width="22" height="22"></rect>
        <rect id="Rectangle-Copy-44" fill="#000000" x="365" y="394" width="22" height="22"></rect>
        <rect id="Rectangle-Copy-53" fill="#000000" x="520" y="396" width="22" height="22"></rect>
        <rect id="Rectangle-Copy-55" fill="#0064FF" x="520" y="440" width="22" height="22"></rect>
        <rect id="Rectangle-Copy-54" fill="#D92A63" x="520" y="352" width="22" height="22"></rect>
        <rect id="Rectangle-Copy-49" fill="#0064FF" x="653" y="394" width="22" height="22"></rect>
        <rect id="Rectangle-Copy-48" fill="#D92A63" x="365" y="440" width="22" height="22"></rect>
        <rect id="Rectangle-Copy-14" fill="#000000" x="103" y="330" width="22" height="22"></rect>
        <rect id="Rectangle-Copy-45" fill="#0064FF" x="342" y="394" width="22" height="22"></rect>
        <rect id="Rectangle-Copy-50" fill="#000000" x="630" y="394" width="22" height="22"></rect>
        <rect id="Rectangle-Copy-46" fill="#000000" x="342" y="417" width="22" height="22"></rect>
        <rect id="Rectangle-Copy-51" fill="#D92A63" x="676" y="417" width="22" height="22"></rect>
        <rect id="Rectangle-Copy-47" fill="#000000" x="342" y="440" width="22" height="22"></rect>
        <rect id="Rectangle-Copy-52" fill="#000000" x="676" y="440" width="22" height="22"></rect>
        <rect id="Rectangle-Copy-15" fill="#000000" x="103" y="353" width="22" height="22"></rect>
        <rect id="Rectangle-Copy-21" fill="#000000" x="213" y="329" width="22" height="133"></rect>
    </g>
</svg>