<?xml version="1.0" encoding="UTF-8"?>
<svg width="800px" height="800px" viewBox="0 0 800 800" version="1.1" xmlns="http://www.w3.org/2000/svg" xmlns:xlink="http://www.w3.org/1999/xlink" style="background: #FFFFFF;">
    <!-- Generator: Sketch 49.3 (51167) - http://www.bohemiancoding.com/sketch -->
    <title>Artboard</title>
    <desc>Created with Sketch.</desc>
    <defs></defs>
    <g id="Artboard" stroke="none" stroke-width="1" fill="none" fill-rule="evenodd">
        <rect id="Rectangle" fill="#5392FF" x="0" y="0" width="200" height="200"></rect>
        <rect id="Rectangle" fill="#C22DD5" x="200" y="0" width="200" height="200"></rect>
        <rect id="Rectangle" fill="#FE6100" x="400" y="0" width="200" height="200"></rect>
        <rect id="Rectangle" fill="#70CBDA" x="600" y="0" width="200" height="200"></rect>
        <rect id="Rectangle" fill="#9B82F3" x="0" y="200" width="200" height="200"></rect>
        <rect id="Rectangle" fill="#40D5BB" x="200" y="200" width="200" height="200"></rect>
        <rect id="Rectangle" fill="#BC91E7" x="400" y="200" width="200" height="200"></rect>
        <rect id="Rectangle" fill="#95D13C" x="600" y="200" width="200" height="200"></rect>
        <rect id="Rectangle" fill="#F48000" x="0" y="400" width="200" height="200"></rect>
        <rect id="Rectangle" fill="#E62325" x="200" y="400" width="200" height="200"></rect>
        <rect id="Rectangle" fill="#648FFF" x="400" y="400" width="200" height="200"></rect>
        <rect id="Rectangle" fill="#FED500" x="600" y="400" width="200" height="200"></rect>
        <rect id="Rectangle" fill="#009BEF" x="0" y="600" width="200" height="200"></rect>
        <rect id="Rectangle" fill="#FFB000" x="200" y="600" width="200" height="200"></rect>
        <rect id="Rectangle" fill="#57D785" x="400" y="600" width="200" height="200"></rect>
        <rect id="Rectangle" fill="#FF509E" x="600" y="600" width="200" height="200"></rect>
    </g>
</svg>