<?xml version="1.0" encoding="UTF-8"?>
<svg width="800px" height="800px" viewBox="0 0 800 800" version="1.1" xmlns="http://www.w3.org/2000/svg" xmlns:xlink="http://www.w3.org/1999/xlink" style="background: #FFFFFF;">
    <!-- Generator: Sketch 49.3 (51167) - http://www.bohemiancoding.com/sketch -->
    <title>Artboard</title>
    <desc>Created with Sketch.</desc>
    <defs>
        <radialGradient cx="50%" cy="50%" fx="50%" fy="50%" r="71.4643484%" id="radialGradient-1">
            <stop stop-color="#FFFFFF" offset="0%"></stop>
            <stop stop-color="#C5C8C4" offset="100%"></stop>
        </radialGradient>
    </defs>
    <g id="Artboard" stroke="none" stroke-width="1" fill="none" fill-rule="evenodd">
        <rect id="Rectangle" fill="url(#radialGradient-1)" x="0" y="0" width="800" height="800"></rect>
        <g id="invision" transform="translate(224.000000, 224.000000)" fill-rule="nonzero">
            <path d="M320.999723,0 L32.0002773,0 C14.3268359,0 0,14.3268359 0,32.0002773 L0,320.999723 C0,338.673164 14.3268359,353 32.0002773,353 L320.999723,353 C338.673164,353 353,338.673164 353,320.999723 L353,32.0002773 C353,14.3268359 338.673164,0 320.999723,0" id="Shape" fill="#DC395F"></path>
            <path d="M117.654075,111.414562 C129.402337,111.414562 139.244094,102.234398 139.244094,90.2024638 C139.244094,78.1787881 129.402337,69 117.654075,69 C105.905814,69 96.0668174,78.1787881 96.0668174,90.2024638 C96.0668174,102.233021 105.905814,111.414562 117.654075,111.414562 M72.8891957,224.98985 C71.6204939,230.371326 70.9840722,236.182219 70.9840722,240.922322 C70.9840722,259.600584 81.1433502,272 102.733369,272 C120.638769,272 135.154981,261.399456 145.60693,244.281959 L139.224767,269.81713 L174.780169,269.81713 L195.101486,188.559599 C200.181815,167.986121 210.023572,157.307126 224.94704,157.307126 C236.693921,157.307126 243.995513,164.590699 243.995513,176.614375 C243.995513,180.097883 243.677993,183.892442 242.40791,188.009065 L231.929731,225.358709 C230.342128,230.740184 229.709848,236.124413 229.709848,241.185202 C229.709848,258.916545 240.183886,271.885764 262.091425,271.885764 C280.823759,271.885764 295.744465,259.863465 304,231.058118 L290.031856,225.682148 C283.046403,244.979762 277.013512,248.468775 272.250703,248.468775 C267.487895,248.468775 264.94773,245.305954 264.94773,238.978935 C264.94773,236.129918 265.585532,232.968473 266.535333,229.161526 L276.697372,192.773942 C279.236156,184.229645 280.190098,176.652912 280.190098,169.691402 C280.190098,142.470219 263.679028,128.263674 243.677993,128.263674 C224.94704,128.263674 205.895805,145.108656 196.372949,162.837247 L203.35564,131.016347 L149.067905,131.016347 L141.447411,159.044063 L166.847676,159.044063 L151.206337,221.474687 C138.923812,248.69587 116.361904,249.137674 113.530449,248.505936 C108.880844,247.45992 105.907194,245.699586 105.907194,239.676737 C105.907194,236.201488 106.542235,231.209515 108.129838,225.190795 L131.943882,131.016347 L71.6204939,131.016347 L64,159.044063 L89.0799841,159.044063 L72.8905762,224.98985" id="Shape" fill="#FFFFFF"></path>
        </g>
    </g>
</svg>