<?xml version="1.0" encoding="UTF-8"?>
<svg width="201px" height="201px" viewBox="0 0 201 201" version="1.1" xmlns="http://www.w3.org/2000/svg" xmlns:xlink="http://www.w3.org/1999/xlink">
    <title>background</title>
    <g id="background" stroke="none" stroke-width="1" fill="none" fill-rule="evenodd">
        <rect id="Rectangle" stroke="#66FFE3" fill="#66FFE3" x="96" y="174" width="9" height="8" rx="4"></rect>
        <path d="M152,132 C155.117361,142 156.676042,147 156.676042,147 C156.676042,147 160.784028,143.351596 169,136.054788 L152,132 Z" id="Line-8" stroke="#66FFE3" fill="#66FFE3" stroke-linecap="square"></path>
        <polygon id="Line-9" stroke="#66FFE3" fill="#66FFE3" stroke-linecap="square" points="32 20.0130058 40.7370892 8 50 26"></polygon>
        <path d="M16,185.296494 C25.3333333,183.440078 30,183.577277 30,185.708091 C30,187.838904 25.3333333,190.936207 16,195 L16,185.296494 Z" id="Line-12" stroke="#66FFE3" fill="#66FFE3" stroke-linecap="square"></path>
        <ellipse id="Oval" stroke="#66FFE3" fill="#66FFE3" cx="183" cy="189" rx="6" ry="4"></ellipse>
        <path d="M157,19.3008535 C158.528127,17.0514437 159.684486,15.6348899 160.469077,15.0511919 C162.135534,13.8114278 163.655338,13.5449074 166.161044,14.9239299 C168.643599,16.2902109 166.755649,22.5526724 170.254902,26.5957261 C171.939518,28.5421396 176.187884,29.6768976 183,30" id="Line-14" stroke="#66FFE3" stroke-width="4" stroke-linecap="square"></path>
        <path d="M10.5793878,78 C10.0669156,81.1057897 9.89440709,83.2724564 10.0618623,84.5 C10.4943869,87.670656 12.1948109,89.8797353 13.1670153,90.5892251 C14.7038144,91.7107413 17.9814759,90.535747 23,87.064242" id="Line-15" stroke="#66FFE3" stroke-width="4" stroke-linecap="square"></path>
        <path d="M126,57 C126.051538,55.5625404 126.72414,54.6562971 128.017808,54.2812702 C129.311476,53.9062433 132.972206,53.9062433 139,54.2812702" id="Line-18" stroke="#66FFE3" stroke-width="5" stroke-linecap="round" stroke-linejoin="round"></path>
        <path d="M194,97.9956872 C192.766358,93.2935689 190.306764,90.6364845 186.621218,90.024434 C183.523458,89.509996 179.329619,97.2816216 173.611066,97.9956872 C172.887685,98.0860145 171.683997,96.7574723 170,94.0100606" id="Line-20" stroke="#66FFE3" stroke-width="4" stroke-linecap="round" stroke-linejoin="round"></path>
        <path d="M66,72 C62.7052502,74.1873814 60.6005697,76.0777665 59.6859585,77.6711555 C58.7713472,79.2645444 58.7713472,81.0408259 59.6859585,83" id="Line-23" stroke="#66FFE3" stroke-width="2" stroke-linecap="square" transform="translate(62.500000, 77.500000) scale(-1, 1) translate(-62.500000, -77.500000) "></path>
        <line x1="54.5" y1="138.5" x2="65.5" y2="138.5" id="Line-17" stroke="#66FFE3" stroke-width="4" stroke-linecap="square"></line>
    </g>
</svg>