<?xml version="1.0" encoding="UTF-8"?>
<svg width="500px" height="500px" viewBox="0 0 500 500" version="1.1" xmlns="http://www.w3.org/2000/svg" xmlns:xlink="http://www.w3.org/1999/xlink">
    <title>face-light</title>
    <g id="face-light" stroke="none" stroke-width="1" fill="none" fill-rule="evenodd">
        <rect id="Rectangle" stroke="#00A8D6" fill="#00A8D6" x="95" y="488" width="9" height="8" rx="4"></rect>
        <rect id="Rectangle" stroke="#00A8D6" fill="#00A8D6" x="139" y="476" width="9" height="8" rx="4"></rect>
        <path d="M123,248 C123,309 131.440025,352.036154 148.320075,377.108461 C173.64015,414.716923 178.769799,431 212.217001,431 C245.664203,431 268.429254,416.38024 295,387.538177 C301.622287,380.349805 319.230404,365.778183 328.242435,344.991256 C334.126901,331.418294 339.712756,303.421077 345,260.999605" id="Line-2" stroke="#00A8D6" stroke-width="3" stroke-linecap="round"></path>
        <path d="M364.308281,218.334625 C376.440677,177.641215 372.328951,131.575491 372.328951,127.880423 C372.328951,124.185356 364.644713,127.301134 364.308281,123.768868 C369.655394,113.458762 370.992173,100.794211 368.318616,85.7752144 C367.591868,96.7638407 366.25509,100.951465 364.308281,98.3380887 C361.044775,77.4694778 350.797082,57.7309778 333.565203,39.1225889 C340.155697,55.533732 340.155697,62.9716108 333.565203,61.4362253 C309.596311,29.8120751 273.650883,14 225.728919,14 C237.534968,24.6976798 240.464099,31.3256281 234.516314,33.8838451 C200.938087,20.6279484 171.567667,25.3727294 146.405056,48.1181883 C157.535462,52.7813937 161.72067,57.2207393 158.960679,61.4362253 C134.104202,67.9669664 116.783976,83.5894609 107,108.303709 C116.385303,109.056966 121.277291,111.678167 121.675964,116.167313 C111.891988,155.166702 110.284268,189.527033 116.852805,219.248304 C121.465842,199.047658 126.574589,184.187022 132.179048,174.666397 C142.772845,156.670088 163.886082,136.039418 173.072657,127.880423 C189.549223,113.246872 212.448424,106.721301 241.77026,108.303709 C278.613803,108.986741 303.922566,115.512312 317.696547,127.880423 C328.91951,137.95789 329.397702,192.691068 342.961888,226.380825 C346.045076,234.038627 352.175884,259.028036 364.308281,218.334625 Z" id="Line" stroke="#00A8D6" stroke-width="3" stroke-linecap="square" stroke-linejoin="round"></path>
        <path d="M217,246 C215.35894,253.937857 214.162189,259.95303 213.409749,264.045521 C212.771235,267.518367 211.142707,275.758531 209.574964,284.060056 C207.801136,293.452847 206.105125,302.924192 206.008988,305.657635 C205.830948,310.719866 208.297868,314.500655 213.409749,317" id="Line-2" stroke="#00A8D6" stroke-width="3" stroke-linecap="round"></path>
        <path d="M160.51513,398 C160.661075,425.58093 160.820266,442.213938 160.992703,447.899024 C161.099995,451.436347 161.274137,457.470005 161.51513,466" id="Line-2" stroke="#00A8D6" stroke-width="3" stroke-linecap="round"></path>
        <path d="M326.48487,351 C325.967008,380.148071 325.63986,396.911616 325.503428,401.290637 C325.426245,403.767965 325.589819,420.671086 325.994149,452" id="Line-2" stroke="#00A8D6" stroke-width="3" stroke-linecap="round"></path>
        <path d="M421.959828,442.774912 C432.766075,438.049773 435.639363,436.958135 430.579693,439.5 C427.717304,440.938 404.844016,450.862971 361.959828,469.274912 L421.959828,442.774912 Z" id="Line-2" stroke="#00A8D6" stroke-width="2" stroke-linecap="round" transform="translate(397.479914, 453.720633) scale(-1, 1) translate(-397.479914, -453.720633) "></path>
        <path d="M217,246 C215.35894,253.937857 214.162189,259.95303 213.409749,264.045521 C212.771235,267.518367 211.142707,275.758531 209.574964,284.060056 C207.801136,293.452847 206.105125,302.924192 206.008988,305.657635 C205.830948,310.719866 208.297868,314.500655 213.409749,317" id="Line-2" stroke="#00A8D6" stroke-width="3" stroke-linecap="round"></path>
        <path d="M144,420.663966 C139.76017,421.22011 66.0782487,441.166479 66,443.391327" id="Line-2" stroke="#00A8D6" stroke-width="2" stroke-linecap="round"></path>
        <path d="M212,222.318059 C210.909871,224.643562 208.961461,226.82072 206.154771,228.849533 C203.348081,230.878347 193.343309,233.139163 176.140457,235.631981 C171.398856,236.432258 166.750963,236.432258 162.196779,235.631981 C155.365503,234.431567 151.987565,232.376197 151.987565,232.376197 C151.987565,232.376197 148.019181,230.949791 142.463768,227.215565 C138.038327,224.240881 134.168853,217.844369 134.677277,218.762796" id="Line-2" stroke="#00A8D6" stroke-width="3" stroke-linecap="round" transform="translate(173.316107, 227.452821) scale(1, -1) translate(-173.316107, -227.452821) "></path>
        <path d="M308,222.546099 C299.71121,226.022511 294.024302,228.215818 290.939276,229.12602 C286.311736,230.491322 282.427824,231.097359 277.495501,231.546099 C272.563177,231.994839 271.405464,232.290022 264.338981,231.546099 C257.272497,230.802175 258.735342,230.279889 254.507316,229.12602 C250.27929,227.97215 248.534333,227.249135 246.821771,226.765482 C245.680062,226.443046 243.072805,225.036585 239,222.546099" id="Line-2" stroke="#00A8D6" stroke-width="3" stroke-linecap="round" transform="translate(273.500000, 227.273049) scale(1, -1) translate(-273.500000, -227.273049) "></path>
        <path d="M177.44908,343.497615 C187.558813,357.275288 194.764058,370.8484 216.491378,371.937546 C238.218699,373.026691 258.187569,359.664625 266.37876,347.955477 C270.221011,342.463055 255.361504,340 245.956567,340 C236.55163,340 230.469235,342.055206 216.491378,342.055206 C203.748517,342.055206 198.631242,340 191.407013,340 C184.182783,340 174.834228,340 177.44908,343.497615 Z" id="Line-3" stroke="#00A8D6" stroke-width="4" stroke-linecap="square"></path>
        <path d="M248,252.486729 C248.302247,248.758799 259.72621,241 272.089221,241 C277.770855,241 285.801025,243.585312 290.132102,246.269211 C295.225278,249.425371 296.145264,252.884443 295.982855,254.887613 C295.901968,255.885281 294.899762,250.013451 290.132102,246.269211 C285.593848,242.705133 277.43855,241.282605 271.353154,241.282605 C266.323663,241.282605 261.671705,243.243507 257.770306,245.684225 C251.992151,249.299042 248,253.730379 248,252.486729 Z" id="Line-4" stroke="#00A8D6" stroke-width="2" stroke-linecap="square" stroke-linejoin="round"></path>
        <path d="M149.001545,252.760965 C148.81804,255.167782 165.030952,238.596412 173.433088,239.007529 C176.915043,239.177902 184.940783,240.207942 188.962179,242.648145 C194.64462,246.096278 195.901905,251.135572 195.99387,249.929375 C196.296962,245.954083 185.308665,239.743229 174.353367,239.207186 C163.398069,238.671142 151.435713,249.292555 149.001545,252.760965 Z" id="Line-5" stroke="#00A8D6" stroke-width="2" stroke-linecap="round" stroke-linejoin="round"></path>
        <circle id="Oval" stroke="#00A8D6" stroke-width="2" fill="#00A8D6" cx="176" cy="245.5" r="6.5"></circle>
        <circle id="Oval" stroke="#00A8D6" stroke-width="2" fill="#00A8D6" cx="274" cy="247.5" r="6.5"></circle>
        <path d="M295.39287,255 C290.650434,254.333333 287.0565,254 284.611068,254 C282.165637,254 274.759571,254 262.39287,254" id="Line-6" stroke="#00A8D6" stroke-width="2" stroke-linecap="round" stroke-linejoin="round"></path>
        <polyline id="Line-7" stroke="#00A8D6" stroke-width="2" stroke-linecap="square" points="149 254 166.257565 252 182.5 252.5"></polyline>
        <path d="M400.701925,480.13084 C403.900642,490.376947 405.5,495.5 405.5,495.5 C405.5,495.5 409.715194,491.761807 418.145583,484.28542 L400.701925,480.13084 Z" id="Line-8" stroke="#00A8D6" fill="#00A8D6" stroke-linecap="square"></path>
        <polygon id="Line-9" stroke="#00A8D6" fill="#00A8D6" stroke-linecap="square" points="340 451.880639 348.598155 440 357.713771 457.801664"></polygon>
        <path d="M372,223 C374.056143,224.116448 375.369692,225.616448 375.940647,227.5 C376.79708,230.325328 377.21621,229.364282 375.940647,236 C374.665085,242.635718 374.822414,238.438357 372,248 C369.177586,257.561643 368.730772,257.54651 366.611066,267.606325 C364.582816,277.232108 366.086708,282.148456 363.356439,289.021089 C360.62617,295.893722 360.292911,299.511973 355.352324,305.88505 C352.058599,310.133767 348.404476,312.667674 344.389957,313.48677 L340.628868,313.48677" id="Line-10" stroke="#00A8D6" stroke-width="2" stroke-linecap="round" stroke-linejoin="round" transform="translate(358.688298, 268.243385) rotate(-2.000000) translate(-358.688298, -268.243385) "></path>
        <path d="M111.108025,219 C108.843353,224.665386 107.816301,228.998719 108.02687,232 C108.73604,242.107964 113.330354,252.834553 113.330354,263.5 C113.330354,275.943332 115.067826,286.161183 118.542769,294.153552 C119.096141,295.426307 120.025336,297.208456 121.330354,299.5" id="Line-11" stroke="#00A8D6" stroke-width="2" stroke-linecap="round" stroke-linejoin="round"></path>
        <path d="M101,441.241927 C110.333333,439.463644 115,439.595069 115,441.636201 C115,443.677333 110.333333,446.644277 101,450.537033 L101,441.241927 Z" id="Line-12" stroke="#00A8D6" fill="#00A8D6" stroke-linecap="square"></path>
        <ellipse id="Oval" stroke="#00A8D6" fill="#00A8D6" cx="401" cy="460" rx="6" ry="4"></ellipse>
        <path d="M84,443 C78.7767998,444.898965 75.7767998,446.549624 75,447.951976 C73.0530089,451.466868 76.597402,456.417692 75,457.855928 C72.446614,460.154892 69.446614,460.605072 66,459.206466" id="Line-13" stroke="#00A8D6" stroke-width="4" stroke-linecap="square"></path>
        <path d="M323,484.44991 C324.49874,482.137248 325.632861,480.680862 326.402364,480.080751 C328.036774,478.806125 329.527351,478.532111 331.98487,479.94991 C334.419684,481.35461 332.56804,487.793168 336,491.94991 C337.65222,493.951056 341.818886,495.117722 348.5,495.44991" id="Line-14" stroke="#00A8D6" stroke-width="4" stroke-linecap="square"></path>
        <path d="M104.5,466.5 C104.004882,469.583778 103.838216,471.735088 104,472.953932 C104.417878,476.102116 106.060718,478.295539 107,479 C108.484757,480.113568 111.651423,478.946901 116.5,475.5" id="Line-15" stroke="#00A8D6" stroke-width="4" stroke-linecap="square"></path>
        <path d="M87.5,475.5 C83.2362523,473.840055 80.8647817,475.006721 80.3855883,479 C80.084551,481.508644 86.3402854,482.986562 87.5,488 C87.8030914,489.310262 81.3616438,492.21887 80.3855883,495.44991 C80.0539786,496.547639 81.4254491,498.231002 84.5,500.5" id="Line-16" stroke="#00A8D6" stroke-width="4" stroke-linecap="square"></path>
        <path d="M375,454.714419 C375.049567,453.413796 375.696449,452.593822 376.940647,452.254495 C378.184845,451.915168 381.70559,451.915168 387.502882,452.254495" id="Line-18" stroke="#00A8D6" stroke-width="5" stroke-linecap="round" stroke-linejoin="round"></path>
        <path d="M392,494.024522 C390.766358,489.305447 388.306764,486.63878 384.621218,486.024522 C381.523458,485.508229 377.329619,493.307881 371.611066,494.024522 C370.887685,494.115175 369.683997,492.781842 368,490.024522" id="Line-20" stroke="#00A8D6" stroke-width="4" stroke-linecap="round" stroke-linejoin="round"></path>
        <line x1="144" y1="452" x2="150" y2="446" id="Line-21" stroke="#00A8D6" stroke-width="3" stroke-linecap="square"></line>
        <path d="M132,441 C128.70525,443.187381 126.60057,445.077767 125.685958,446.671155 C124.771347,448.264544 124.771347,450.040826 125.685958,452" id="Line-23" stroke="#00A8D6" stroke-width="2" stroke-linecap="square" transform="translate(128.500000, 446.500000) scale(-1, 1) translate(-128.500000, -446.500000) "></path>
        <path d="M308,496 C324.369085,465.670212 333.619085,444.336879 335.75,432 C337.156298,423.858275 333.362197,406.606663 330.80724,396 C330.137381,393.219143 344.856145,409.38995 362.569915,448.900832 C366.092624,456.758297 364.473909,473.196608 357.713771,498.215765" id="Line-19" stroke="#00A8D6" stroke-width="2" stroke-linecap="round" stroke-linejoin="round"></path>
        <line x1="413" y1="473" x2="424" y2="473" id="Line-17" stroke="#00A8D6" stroke-width="4" stroke-linecap="square"></line>
        <path d="M134.5,496.5 C136.456494,470.443544 138.677373,452.740653 141.162637,443.391327 C143.647901,434.042001 148.427022,423.147796 155.5,410.708711 C155.5,434.39941 155.5,450.82984 155.5,460 C155.5,469.17016 157.505043,479.836826 161.51513,492" id="Line-22" stroke="#00A8D6" stroke-width="2" stroke-linecap="round" stroke-linejoin="round"></path>
    </g>
</svg>