<?xml version="1.0" encoding="UTF-8"?>
<svg width="500px" height="500px" viewBox="0 0 500 500" version="1.1" xmlns="http://www.w3.org/2000/svg" xmlns:xlink="http://www.w3.org/1999/xlink">
    <title>Artboard</title>
    <g id="Artboard" stroke="none" stroke-width="1" fill="none" fill-rule="evenodd">
        <rect id="Rectangle" stroke="#66FFE3" fill="#66FFE3" x="95" y="488" width="9" height="8" rx="4"></rect>
        <rect id="Rectangle" stroke="#66FFE3" fill="#66FFE3" x="139" y="476" width="9" height="8" rx="4"></rect>
        <path d="M123,248 C123,309 131.440025,352.036154 148.320075,377.108461 C173.64015,414.716923 178.769799,431 212.217001,431 C245.664203,431 268.429254,416.38024 295,387.538177 C301.622287,380.349805 319.230404,365.778183 328.242435,344.991256 C334.126901,331.418294 339.712756,303.421077 345,260.999605" id="Line-2" stroke="#66FFE3" stroke-width="3" stroke-linecap="round"></path>
        <path d="M364.308281,218.334625 C376.440677,177.641215 372.328951,131.575491 372.328951,127.880423 C372.328951,124.185356 364.644713,127.301134 364.308281,123.768868 C369.655394,113.458762 370.992173,100.794211 368.318616,85.7752144 C367.591868,96.7638407 366.25509,100.951465 364.308281,98.3380887 C361.044775,77.4694778 350.797082,57.7309778 333.565203,39.1225889 C340.155697,55.533732 340.155697,62.9716108 333.565203,61.4362253 C309.596311,29.8120751 273.650883,14 225.728919,14 C237.534968,24.6976798 240.464099,31.3256281 234.516314,33.8838451 C200.938087,20.6279484 171.567667,25.3727294 146.405056,48.1181883 C157.535462,52.7813937 161.72067,57.2207393 158.960679,61.4362253 C134.104202,67.9669664 116.783976,83.5894609 107,108.303709 C116.385303,109.056966 121.277291,111.678167 121.675964,116.167313 C111.891988,155.166702 110.284268,189.527033 116.852805,219.248304 C121.465842,199.047658 126.574589,184.187022 132.179048,174.666397 C142.772845,156.670088 163.886082,136.039418 173.072657,127.880423 C189.549223,113.246872 212.448424,106.721301 241.77026,108.303709 C278.613803,108.986741 303.922566,115.512312 317.696547,127.880423 C328.91951,137.95789 329.397702,192.691068 342.961888,226.380825 C346.045076,234.038627 352.175884,259.028036 364.308281,218.334625 Z" id="Line" stroke="#66FFE3" stroke-width="3" stroke-linecap="square" stroke-linejoin="round"></path>
        <path d="M217,246 C215.35894,253.937857 214.162189,259.95303 213.409749,264.045521 C212.771235,267.518367 211.142707,275.758531 209.574964,284.060056 C207.801136,293.452847 206.105125,302.924192 206.008988,305.657635 C205.830948,310.719866 208.297868,314.500655 213.409749,317" id="Line-2" stroke="#66FFE3" stroke-width="3" stroke-linecap="round"></path>
        <path d="M160.51513,398 C162.191295,439.371395 164.019585,464.320908 166,472.848536 C167.232236,478.15452 169.232236,487.205008 172,500" id="Line-2" stroke="#66FFE3" stroke-width="3" stroke-linecap="round"></path>
        <path d="M328.48487,344 C326.931282,377.765587 325.94984,397.184744 325.540544,402.257471 C325.308994,405.127247 325.799715,424.70809 327.012707,461" id="Line-2" stroke="#66FFE3" stroke-width="3" stroke-linecap="round"></path>
        <path d="M334.018558,392.342311 C336.649115,412.693406 337.908927,425.579302 337.797995,431 C337.645664,438.443633 334.083763,442.680269 334.018558,444.690256 C333.941375,447.069472 325.268522,465.506053 308,500" id="Line-2" stroke="#66FFE3" stroke-width="3" stroke-linecap="round"></path>
        <path d="M433,384.296833 C412.000705,414.154403 398.977064,431.12095 393.929077,435.196475 C391.073297,437.502107 369.17775,448.861586 328.242435,469.274912" id="Line-2" stroke="#66FFE3" stroke-width="3" stroke-linecap="round" transform="translate(380.621218, 426.785873) scale(-1, 1) translate(-380.621218, -426.785873) "></path>
        <path d="M217,246 C215.35894,253.937857 214.162189,259.95303 213.409749,264.045521 C212.771235,267.518367 211.142707,275.758531 209.574964,284.060056 C207.801136,293.452847 206.105125,302.924192 206.008988,305.657635 C205.830948,310.719866 208.297868,314.500655 213.409749,317" id="Line-2" stroke="#66FFE3" stroke-width="3" stroke-linecap="round"></path>
        <path d="M159.991012,396 C160.743452,405.714354 160.743452,412.617777 159.991012,416.710268 C159.557317,419.069116 147.169366,421.676631 138.191691,422.854243 C133.951861,423.410387 66.0782487,441.166479 66,443.391327" id="Line-2" stroke="#66FFE3" stroke-width="3" stroke-linecap="round"></path>
        <path d="M159.991012,396 C160.743452,405.714354 160.743452,412.617777 159.991012,416.710268 C159.557317,419.069116 147.169366,421.676631 138.191691,422.854243 C133.951861,423.410387 66.0782487,441.166479 66,443.391327" id="Line-2" stroke="#66FFE3" stroke-width="3" stroke-linecap="round"></path>
        <path d="M212,222.412418 L206.154771,228.943892 L176.140457,235.72634 C168.921115,236.09122 164.273222,236.09122 162.196779,235.72634 C155.365503,234.525926 151.987565,232.470556 151.987565,232.470556 C151.987565,232.470556 148.019181,231.04415 142.463768,227.309924 C138.038327,224.33524 134.236388,218.169307 134,219.093402" id="Line-2" stroke="#66FFE3" stroke-width="3" stroke-linecap="round" transform="translate(173.000000, 227.500000) scale(1, -1) translate(-173.000000, -227.500000) "></path>
        <polyline id="Line-2" stroke="#66FFE3" stroke-width="3" stroke-linecap="round" transform="translate(273.500000, 227.500000) scale(1, -1) translate(-273.500000, -227.500000) " points="308 223 290.939276 229.579921 277.495501 232 264.338981 232 254.507316 229.579921 246.821771 227.219383 242.857939 226.289961 239 223"></polyline>
        <path d="M177.44908,343.497615 C187.558813,357.275288 194.764058,370.8484 216.491378,371.937546 C238.218699,373.026691 258.187569,359.664625 266.37876,347.955477 C270.221011,342.463055 255.361504,340 245.956567,340 C236.55163,340 230.469235,342.055206 216.491378,342.055206 C203.748517,342.055206 198.631242,340 191.407013,340 C184.182783,340 174.834228,340 177.44908,343.497615 Z" id="Line-3" stroke="#66FFE3" stroke-width="2" stroke-linecap="square"></path>
        <path d="M248,252.486729 C248.29595,248.758799 259.481914,241 271.587363,241 C277.150629,241 285.013504,243.585312 289.25435,246.269211 C294.241418,249.425371 295.142238,252.884443 294.983212,254.887613 C294.90401,255.885281 293.922683,250.013451 289.25435,246.269211 C284.810642,242.705133 276.825247,241.282605 270.86663,241.282605 C265.94192,241.282605 261.386878,243.243507 257.566758,245.684225 C251.908981,249.299042 248,253.730379 248,252.486729 Z" id="Line-4" stroke="#66FFE3" stroke-width="2" stroke-linecap="square"></path>
        <path d="M149.001545,252.760965 C148.81804,255.167782 165.030952,238.596412 173.433088,239.007529 C176.915043,239.177902 184.940783,240.207942 188.962179,242.648145 C194.64462,246.096278 195.901905,251.135572 195.99387,249.929375 C196.296962,245.954083 185.308665,239.743229 174.353367,239.207186 C163.398069,238.671142 151.435713,249.292555 149.001545,252.760965 Z" id="Line-5" stroke="#66FFE3" stroke-width="2" stroke-linecap="round" stroke-linejoin="round"></path>
        <circle id="Oval" stroke="#66FFE3" stroke-width="2" fill="#66FFE3" cx="176" cy="245.5" r="6.5"></circle>
        <circle id="Oval" stroke="#66FFE3" stroke-width="2" fill="#66FFE3" cx="274" cy="247.5" r="6.5"></circle>
        <path d="M294,255 C289.601444,254.333333 286.26811,254 284,254 C281.73189,254 274.862846,254 263.39287,254" id="Line-6" stroke="#66FFE3" stroke-width="2" stroke-linecap="square"></path>
        <polyline id="Line-7" stroke="#66FFE3" stroke-width="2" stroke-linecap="square" points="149 254 166.257565 252 182.5 252.5"></polyline>
        <path d="M400.701925,480.13084 C403.900642,490.376947 405.5,495.5 405.5,495.5 C405.5,495.5 409.715194,491.761807 418.145583,484.28542 L400.701925,480.13084 Z" id="Line-8" stroke="#66FFE3" fill="#66FFE3" stroke-linecap="square"></path>
        <polygon id="Line-9" stroke="#66FFE3" fill="#66FFE3" stroke-linecap="square" points="349.897296 469.274912 358.495451 457.394274 367.611066 475.195938"></polygon>
        <path d="M373,223 L376.940647,227.5 L376.940647,236 L373,248 L367.611066,267.606325 C367.261494,277.301079 366.176618,284.439333 364.356439,289.021089 C362.53626,293.602844 359.868221,299.224164 356.352324,305.88505 L345.389957,313.48677 L341.628868,313.48677" id="Line-10" stroke="#66FFE3" stroke-width="3" stroke-linecap="square"></path>
        <path d="M113.277671,219 C111.012999,224.665386 109.985947,228.998719 110.196516,232 C110.905687,242.107964 115.5,252.834553 115.5,263.5 C115.5,275.943332 117.237472,286.161183 120.712415,294.153552 C121.265787,295.426307 122.194982,297.208456 123.5,299.5" id="Line-11" stroke="#66FFE3" stroke-width="3" stroke-linecap="square"></path>
        <path d="M120,457.241927 C129.333333,455.463644 134,455.595069 134,457.636201 C134,459.677333 129.333333,462.644277 120,466.537033 L120,457.241927 Z" id="Line-12" stroke="#66FFE3" fill="#66FFE3" stroke-linecap="square"></path>
        <ellipse id="Oval" stroke="#66FFE3" fill="#66FFE3" cx="401" cy="460" rx="6" ry="4"></ellipse>
        <path d="M84,443 C78.7767998,444.898965 75.7767998,446.549624 75,447.951976 C73.0530089,451.466868 76.597402,456.417692 75,457.855928 C72.446614,460.154892 69.446614,460.605072 66,459.206466" id="Line-13" stroke="#66FFE3" stroke-width="4" stroke-linecap="square"></path>
        <path d="M323,484.44991 C324.49874,482.137248 325.632861,480.680862 326.402364,480.080751 C328.036774,478.806125 329.527351,478.532111 331.98487,479.94991 C334.419684,481.35461 332.56804,487.793168 336,491.94991 C337.65222,493.951056 341.818886,495.117722 348.5,495.44991" id="Line-14" stroke="#66FFE3" stroke-width="4" stroke-linecap="square"></path>
        <path d="M104.5,466.5 C104.004882,469.583778 103.838216,471.735088 104,472.953932 C104.417878,476.102116 106.060718,478.295539 107,479 C108.484757,480.113568 111.651423,478.946901 116.5,475.5" id="Line-15" stroke="#66FFE3" stroke-width="4" stroke-linecap="square"></path>
        <path d="M87.5,475.5 C83.2362523,473.840055 80.8647817,475.006721 80.3855883,479 C80.084551,481.508644 86.3402854,482.986562 87.5,488 C87.8030914,489.310262 81.3616438,492.21887 80.3855883,495.44991 C80.0539786,496.547639 81.4254491,498.231002 84.5,500.5" id="Line-16" stroke="#66FFE3" stroke-width="4" stroke-linecap="square"></path>
        <line x1="413" y1="470" x2="426" y2="467" id="Line-17" stroke="#66FFE3" stroke-width="4" stroke-linecap="square"></line>
        <path d="M375,451 C375.049567,449.699377 375.696449,448.879403 376.940647,448.540076 C378.184845,448.200749 381.70559,448.200749 387.502882,448.540076" id="Line-18" stroke="#66FFE3" stroke-width="5" stroke-linecap="square"></path>
        <path d="M339,428.622628 C346.646882,427.08813 349.330225,428.390017 347.05003,432.52829 C345.424075,435.479199 343.417826,439.158059 347.586699,447.530877 C348.137767,448.63765 348.137767,452.460691 347.586699,459" id="Line-19" stroke="#66FFE3" stroke-width="4" stroke-linecap="square"></path>
        <path d="M388,492 C386.766358,487.280924 384.306764,484.614258 380.621218,484 C377.523458,483.483707 373.329619,491.283359 367.611066,492 C366.887685,492.090653 365.683997,490.75732 364,488" id="Line-20" stroke="#66FFE3" stroke-width="4" stroke-linecap="square"></path>
        <line x1="110.5" y1="443.5" x2="116.5" y2="437.5" id="Line-21" stroke="#66FFE3" stroke-width="3" stroke-linecap="square"></line>
        <line x1="128.5" y1="425.5" x2="140.5" y2="430.5" id="Line-22" stroke="#66FFE3" stroke-width="3" stroke-linecap="square"></line>
        <path d="M127.5,440.5 C123.847308,442.687381 121.513975,444.577767 120.5,446.171155 C119.486025,447.764544 119.486025,449.540826 120.5,451.5" id="Line-23" stroke="#66FFE3" stroke-width="2" stroke-linecap="square"></path>
    </g>
</svg>