<?xml version="1.0" encoding="UTF-8"?>
<svg width="500px" height="500px" viewBox="0 0 500 500" version="1.1" xmlns="http://www.w3.org/2000/svg" xmlns:xlink="http://www.w3.org/1999/xlink">
    <title>Artboard</title>
    <g id="Artboard" stroke="none" stroke-width="1" fill="none" fill-rule="evenodd">
        <path d="M160.232479,148.999673 C180.081962,148.999673 196.174958,132.906946 196.174958,113.057463 L196.174958,99.7973454 C196.174958,80.0349695 180.222418,63.9991354 160.493255,63.8584038 L160.232207,63.8543214 C153.244602,63.8543214 147.579931,58.1896503 147.579931,51.2023181 L147.579931,37.9424728 C147.579931,30.9548683 153.244602,25.2904727 160.232207,25.2904727 C167.219811,25.2904727 172.884483,30.9551439 172.884483,37.942476 L196.174958,37.942476 C196.174958,18.0929932 180.081959,1.9999968 160.232476,1.9999968 C140.382993,1.9999968 124.289997,18.092724 124.289997,37.9422069 L124.289997,37.9422037 L124.289997,51.2023213 C124.289997,70.9826608 140.271392,87.0304727 160.0256,87.1418077 L160.232479,87.1453453 C167.220084,87.1453453 172.884755,92.8100165 172.884755,99.7973486 L172.884755,113.057466 C172.884755,120.045071 167.220084,125.709466 160.232479,125.709466 C153.244875,125.709466 147.580204,120.044795 147.580204,113.057463 L124.289997,113.057463 C124.289997,132.906946 140.382996,148.999673 160.232479,148.999673 Z M160.232482,143.555496 C152.086626,143.555496 144.427752,140.382899 138.667265,134.622412 C134.211475,130.166622 131.304284,124.575721 130.21572,118.501646 L142.972521,118.501646 C145.288747,125.827607 152.150591,131.15365 160.232476,131.15365 C170.210844,131.15365 178.328935,123.035558 178.328935,113.057466 L178.328935,99.7973486 C178.328935,89.8355858 170.237248,81.7278413 160.281474,81.7011652 L160.116786,81.6984447 L160.086573,81.6978999 L160.056359,81.6978999 C151.947525,81.6521675 144.330843,78.4597003 138.609554,72.7084669 C132.88609,66.9550578 129.73418,59.3174165 129.73418,51.2023213 L129.73418,37.942476 C129.73418,29.7966191 132.906777,22.1380214 138.667265,16.3775339 C144.427752,10.616774 152.086626,7.44417694 160.232479,7.44417694 C168.378336,7.44417694 176.037209,10.6167772 181.797697,16.3772647 C186.253487,20.8330548 189.160678,26.4239555 190.249242,32.4980299 L177.492441,32.4980299 C175.176215,25.1720689 168.314371,19.8460266 160.232486,19.8460266 C150.254118,19.8460266 142.136027,27.9641179 142.136027,37.9422101 L142.136027,51.2023277 C142.136027,61.1649077 150.228256,69.2729245 160.184843,69.2985112 L160.407238,69.3020488 L160.454601,69.3025935 C168.553636,69.3603006 176.159157,72.5579396 181.870375,78.3067216 C187.584044,84.0582274 190.730782,91.6904245 190.730782,99.7973518 L190.730782,113.057469 C190.730782,121.203326 187.558185,128.861924 181.797697,134.622412 C176.036937,140.382899 168.378336,143.555496 160.232482,143.555496 Z M286.474958,148.999942 L286.474958,125.710553 L237.879386,125.710553 L237.879386,87.1126738 L265.320778,87.1126738 L265.320778,63.8232841 L237.879386,63.8232841 L237.879386,25.2893736 L286.474958,25.2893736 L286.474958,1.99998398 L214.59,1.99998398 L214.59,148.999942 L286.474958,148.999942 Z M281.030778,143.555769 L220.03418,143.555769 L220.03418,7.44417694 L281.030778,7.44417694 L281.030778,19.8452063 L232.435206,19.8452063 L232.435206,69.2674771 L259.876598,69.2674771 L259.876598,81.6685033 L232.435206,81.6685033 L232.435206,131.154742 L281.030778,131.154742 L281.030778,143.555769 Z M376.774958,148.999942 L376.774958,125.710553 L328.179386,125.710553 L328.179386,87.1126738 L355.620778,87.1126738 L355.620778,63.8232841 L328.179386,63.8232841 L328.179386,25.2893736 L376.774958,25.2893736 L376.774958,1.99998398 L304.89,1.99998398 L304.89,148.999942 L376.774958,148.999942 Z M371.330778,143.555769 L310.33418,143.555769 L310.33418,7.44417694 L371.330778,7.44417694 L371.330778,19.8452063 L322.735206,19.8452063 L322.735206,69.2674771 L350.176598,69.2674771 L350.176598,81.6685033 L322.735206,81.6685033 L322.735206,131.154742 L371.330778,131.154742 L371.330778,143.555769 Z M57.2274792,323.999949 C76.8784673,323.999949 92.8477229,308.227467 93.1651429,288.652084 L93.1691414,288.057739 L93.1691414,176.999994 L57.2274792,176.999994 L57.2274792,200.289386 L69.8797549,200.289386 L69.8797549,288.057742 C69.8797549,295.045346 64.2150838,300.709742 57.2274792,300.709742 C50.2398747,300.709742 44.5752036,295.045071 44.5752036,288.057739 L21.285,288.057739 C21.285,307.907222 37.3779964,323.999949 57.2274792,323.999949 Z M57.2274792,318.555769 C49.0813531,318.555769 41.4227522,315.383172 35.6622647,309.622684 C31.2064746,305.166894 28.2992839,299.575993 27.2107196,293.501919 L39.9675211,293.501919 C42.2837471,300.82788 49.1455907,306.153922 57.227476,306.153922 C67.2058438,306.153922 75.3239351,298.035831 75.3239351,288.057739 L75.3239351,194.845203 L62.6716594,194.845203 L62.6716594,182.444177 L87.7249612,182.444177 L87.7249612,288.293748 C87.6642581,296.351678 84.4979224,303.917728 78.7926938,309.622684 C73.0322063,315.383172 65.3736053,318.555769 57.2274792,318.555769 Z M134.874377,323.999946 L137.185976,310.014934 L157.869505,310.014934 L160.181104,323.999946 L183.470494,323.999946 L159.172844,176.999997 L135.882637,176.999997 L111.584987,323.999946 L134.874377,323.999946 Z M130.256085,318.555772 L118.002869,318.555772 L140.500673,182.44418 L154.554552,182.44418 L177.052359,318.555772 L164.799143,318.555772 L163.240745,309.127267 L162.487541,304.570761 L132.567687,304.570761 L131.814483,309.126997 L130.256085,318.555772 Z M160.437532,292.169731 L159.390887,285.837877 L152.8987,246.56002 L147.52747,214.063705 L142.15624,246.56002 L135.664053,285.837877 L134.617408,292.169731 L160.437532,292.169731 Z M154.019929,286.725551 L141.035558,286.725551 L147.527742,247.447694 L154.019929,286.725551 Z M225.174383,323.999952 L225.174383,247.449056 L238.787283,288.625026 L262.125671,288.625026 L275.894821,246.972964 L275.894821,323.999952 L299.184211,323.999952 L299.184211,177.000003 L275.736123,177.000003 L250.456613,253.476584 L225.174383,177.000003 L201.884994,177.000003 L201.884994,323.999952 L225.174383,323.999952 Z M219.730479,318.555772 L207.329453,318.555772 L207.329453,182.444183 L221.240421,182.444183 L245.287638,255.185513 L250.456886,270.822287 L255.625591,255.185513 L279.670357,182.444183 L293.740031,182.444183 L293.740031,318.555772 L281.339004,318.555772 L281.339004,213.15916 L270.725846,245.264038 L258.191439,283.180577 L242.721528,283.180577 L230.343637,245.74013 L219.730479,213.637431 L219.730479,318.555772 Z M389.479958,323.999942 L389.479958,300.710553 L340.884386,300.710553 L340.884386,262.112674 L368.325778,262.112674 L368.325778,238.823284 L340.884386,238.823284 L340.884386,200.289374 L389.479958,200.289374 L389.479958,176.999984 L317.595,176.999984 L317.595,323.999942 L389.479958,323.999942 Z M384.035778,318.555769 L323.03918,318.555769 L323.03918,182.444177 L384.035778,182.444177 L384.035778,194.845206 L335.440206,194.845206 L335.440206,244.267477 L362.881598,244.267477 L362.881598,256.668503 L335.440206,256.668503 L335.440206,306.154742 L384.035778,306.154742 L384.035778,318.555769 Z M443.837479,323.999673 C463.686962,323.999673 479.779958,307.906946 479.779958,288.057463 L479.779958,274.797345 C479.779958,255.034969 463.827418,238.999135 444.098255,238.858404 L443.837207,238.854321 C436.849602,238.854321 431.184931,233.18965 431.184931,226.202318 L431.184931,212.942473 C431.184931,205.954868 436.849602,200.290473 443.837207,200.290473 C450.824811,200.290473 456.489483,205.955144 456.489483,212.942476 L479.779958,212.942476 C479.779958,193.092993 463.686959,176.999997 443.837476,176.999997 C423.987993,176.999997 407.894997,193.092724 407.894997,212.942207 L407.894997,212.942204 L407.894997,226.202321 C407.894997,245.982661 423.876392,262.030473 443.6306,262.141808 L443.837479,262.145345 C450.825084,262.145345 456.489755,267.810016 456.489755,274.797349 L456.489755,288.057466 C456.489755,295.045071 450.825084,300.709466 443.837479,300.709466 C436.849875,300.709466 431.185204,295.044795 431.185204,288.057463 L407.894997,288.057463 C407.894997,307.906946 423.987996,323.999673 443.837479,323.999673 Z M443.837482,318.555496 C435.691626,318.555496 428.032752,315.382899 422.272265,309.622412 C417.816475,305.166622 414.909284,299.575721 413.82072,293.501646 L426.577521,293.501646 C428.893747,300.827607 435.755591,306.15365 443.837476,306.15365 C453.815844,306.15365 461.933935,298.035558 461.933935,288.057466 L461.933935,274.797349 C461.933935,264.835586 453.842248,256.727841 443.886474,256.701165 L443.721786,256.698445 L443.691573,256.6979 L443.661359,256.6979 C435.552525,256.652168 427.935843,253.4597 422.214554,247.708467 C416.49109,241.955058 413.33918,234.317417 413.33918,226.202321 L413.33918,212.942476 C413.33918,204.796619 416.511777,197.138021 422.272265,191.377534 C428.032752,185.616774 435.691626,182.444177 443.837479,182.444177 C451.983336,182.444177 459.642209,185.616777 465.402697,191.377265 C469.858487,195.833055 472.765678,201.423956 473.854242,207.49803 L461.097441,207.49803 C458.781215,200.172069 451.919371,194.846027 443.837486,194.846027 C433.859118,194.846027 425.741027,202.964118 425.741027,212.94221 L425.741027,226.202328 C425.741027,236.164908 433.833256,244.272924 443.789843,244.298511 L444.012238,244.302049 L444.059601,244.302594 C452.158636,244.360301 459.764157,247.55794 465.475375,253.306722 C471.189044,259.058227 474.335782,266.690424 474.335782,274.797352 L474.335782,288.057469 C474.335782,296.203326 471.163185,303.861924 465.402697,309.622412 C459.641937,315.382899 451.983336,318.555496 443.837482,318.555496 Z M115.082482,499.000221 C134.931965,499.000221 151.024962,482.907225 151.024962,463.057742 L127.734758,463.057742 C127.734758,470.045346 122.070087,475.709742 115.082482,475.709742 C108.094878,475.709742 102.430207,470.045071 102.430207,463.057739 L102.430207,387.942476 C102.430207,380.954872 108.094878,375.290476 115.082482,375.290476 C122.070087,375.290476 127.734758,380.955147 127.734758,387.942479 L151.024962,387.942479 C151.024962,368.092996 134.931965,352 115.082482,352 C95.2329996,352 79.1400032,368.092996 79.1400032,387.942479 L79.1400032,463.057742 C79.1400032,482.907225 95.2329996,499.000221 115.082482,499.000221 Z M115.082479,493.555765 C106.936622,493.555765 99.2780246,490.383168 93.5172647,484.622681 C87.7565048,478.862193 84.5841833,471.20332 84.5841833,463.057466 L84.5841833,387.942473 C84.5841833,379.796616 87.7567804,372.138018 93.5172679,366.377258 C99.2777554,360.616498 106.936629,357.444177 115.082482,357.444177 C123.228336,357.444177 130.886934,360.616777 136.647694,366.377265 C141.103484,370.833055 144.010947,376.423956 145.099239,382.498299 L132.342437,382.498299 C130.026211,375.172066 123.164368,369.846023 115.082482,369.846023 C105.104115,369.846023 96.9860234,377.964115 96.9860234,387.942207 L96.9860234,463.057469 C96.9860234,473.035837 105.104115,481.153653 115.082482,481.153653 C123.164368,481.153653 130.026211,475.827611 132.342437,468.50165 L145.099239,468.50165 C144.010675,474.575721 141.103484,480.166894 136.647694,484.622681 C130.887206,490.383168 123.228333,493.555765 115.082479,493.555765 Z M205.382479,499.000221 C225.231962,499.000221 241.324958,482.907225 241.324958,463.057742 L241.324958,387.942479 C241.324958,368.092996 225.23169,352 205.382482,352 C185.533,352 169.44,368.092996 169.44,387.942479 L169.44,463.057742 C169.44,482.907225 185.532996,499.000221 205.382479,499.000221 Z M205.382479,493.556041 C197.236353,493.556041 189.577752,490.383444 183.817265,484.622956 C178.056505,478.862469 174.884183,471.203596 174.884183,463.057742 L174.884183,387.942479 C174.884183,379.796622 178.05678,372.138025 183.817268,366.377265 C189.577755,360.616777 197.236356,357.44418 205.382482,357.44418 C213.528336,357.44418 221.187209,360.616777 226.947697,366.377265 C232.708457,372.137752 235.880778,379.796626 235.880778,387.942479 L235.880778,463.057742 C235.880778,471.203599 232.708181,478.862197 226.947694,484.622956 C221.187206,490.383444 213.528605,493.556041 205.382479,493.556041 Z M205.382479,481.153925 C215.36085,481.153925 223.478941,473.035834 223.478941,463.057742 L223.478941,387.942479 C223.478941,377.964111 215.36085,369.846296 205.382482,369.846296 C195.404115,369.846296 187.286023,377.964387 187.286023,387.942479 L187.286023,463.057742 C187.286023,473.035834 195.403839,481.153925 205.382479,481.153925 Z M205.382482,475.709745 C198.394878,475.709745 192.730207,470.045074 192.730207,463.057742 L192.730207,387.942479 C192.730207,380.954875 198.394878,375.290479 205.382482,375.290479 C212.370087,375.290479 218.034758,380.954875 218.034758,387.942479 L218.034758,463.057742 C218.034758,470.045077 212.369818,475.709745 205.382482,475.709745 Z M295.68303,498.999946 C315.532513,498.999946 331.625782,482.906949 331.625782,463.057466 L331.624965,463.057466 L331.624965,387.942473 L331.625782,387.942473 C331.625782,368.09299 315.532513,351.999994 295.68303,351.999994 L259.740006,351.999994 L259.740006,498.999946 L295.68303,498.999946 Z M295.682755,493.555772 L265.183911,493.555772 L265.183911,357.44418 L295.683027,357.44418 C303.828881,357.44418 311.487754,360.616777 317.248242,366.377265 C322.956194,372.085217 326.123074,379.656166 326.180509,387.718726 L326.180509,463.254008 C326.129877,471.326367 322.96218,478.908477 317.247969,484.622687 C311.487482,490.383175 303.828609,493.555772 295.682755,493.555772 Z M283.029665,481.155284 L295.682758,481.155284 C305.661126,481.155284 313.778941,473.03611 313.778941,463.057742 L313.778941,387.942748 C313.778941,377.964381 305.66085,369.845475 295.682758,369.845475 L283.029393,369.845475 L277.58494,369.845475 L277.58494,481.155284 L283.029665,481.155284 Z M283.029393,475.710559 L283.029393,375.289383 L295.682758,375.289383 C302.670363,375.289383 308.335034,380.954872 308.335034,387.942204 L308.335034,463.057197 C308.335034,470.044802 302.670363,475.709473 295.68303,475.709473 L283.029393,475.710559 Z M421.924958,498.999942 L421.924958,475.710553 L373.329386,475.710553 L373.329386,437.112674 L400.770778,437.112674 L400.770778,413.823284 L373.329386,413.823284 L373.329386,375.289374 L421.924958,375.289374 L421.924958,351.999984 L350.04,351.999984 L350.04,498.999942 L421.924958,498.999942 Z M416.480778,493.555769 L355.48418,493.555769 L355.48418,357.444177 L416.480778,357.444177 L416.480778,369.845206 L367.885206,369.845206 L367.885206,419.267477 L395.326598,419.267477 L395.326598,431.668503 L367.885206,431.668503 L367.885206,481.154742 L416.480778,481.154742 L416.480778,493.555769 Z" id="SEEJAMESCODE" fill="#66FFE3" fill-rule="nonzero"></path>
    </g>
</svg>